<mxfile host="app.diagrams.net" modified="2022-04-21T02:17:11.143Z" agent="5.0 (Windows)" etag="GpH8fvNbUpvjA8PvvBai" version="17.4.5" type="github">
  <diagram id="vNYnXQ_NGjMI0ObO1V1S" name="Page-1">
    <mxGraphModel dx="782" dy="384" grid="1" gridSize="10" guides="1" tooltips="1" connect="1" arrows="1" fold="1" page="1" pageScale="1" pageWidth="827" pageHeight="1169" math="0" shadow="0">
      <root>
        <mxCell id="0" />
        <mxCell id="1" parent="0" />
        <mxCell id="ImQmubWD78dIuqHf5WIp-2" value="" style="shape=flexArrow;endArrow=classic;html=1;rounded=0;" parent="1" target="ImQmubWD78dIuqHf5WIp-3" edge="1">
          <mxGeometry width="50" height="50" relative="1" as="geometry">
            <mxPoint x="20" y="180" as="sourcePoint" />
            <mxPoint x="650" y="180" as="targetPoint" />
          </mxGeometry>
        </mxCell>
        <mxCell id="ImQmubWD78dIuqHf5WIp-3" value="kaggle比赛提交一次" style="text;html=1;strokeColor=none;fillColor=none;align=center;verticalAlign=middle;whiteSpace=wrap;rounded=0;" parent="1" vertex="1">
          <mxGeometry x="620" y="165" width="80" height="30" as="geometry" />
        </mxCell>
        <mxCell id="ImQmubWD78dIuqHf5WIp-4" value="了解提交格式" style="text;html=1;strokeColor=#82b366;fillColor=#d5e8d4;align=center;verticalAlign=middle;whiteSpace=wrap;rounded=0;" parent="1" vertex="1">
          <mxGeometry x="20" y="190" width="60" height="30" as="geometry" />
        </mxCell>
        <mxCell id="ImQmubWD78dIuqHf5WIp-5" value="研究baseline，尽快提交一次" style="text;html=1;strokeColor=#82b366;fillColor=#d5e8d4;align=center;verticalAlign=middle;whiteSpace=wrap;rounded=0;shadow=0;" parent="1" vertex="1">
          <mxGeometry x="60" y="140" width="100" height="30" as="geometry" />
        </mxCell>
        <mxCell id="ImQmubWD78dIuqHf5WIp-6" value="研究baseline的infer代码" style="text;html=1;strokeColor=none;fillColor=none;align=center;verticalAlign=middle;whiteSpace=wrap;rounded=0;" parent="1" vertex="1">
          <mxGeometry x="120" y="190" width="90" height="30" as="geometry" />
        </mxCell>
        <mxCell id="132BHVAMFDwWj38LlXiz-1" value="" style="shape=flexArrow;endArrow=classic;html=1;rounded=0;" edge="1" parent="1">
          <mxGeometry width="50" height="50" relative="1" as="geometry">
            <mxPoint x="20" y="260" as="sourcePoint" />
            <mxPoint x="620" y="260" as="targetPoint" />
          </mxGeometry>
        </mxCell>
        <mxCell id="132BHVAMFDwWj38LlXiz-2" value="neo4j认证" style="text;html=1;strokeColor=none;fillColor=none;align=center;verticalAlign=middle;whiteSpace=wrap;rounded=0;" vertex="1" parent="1">
          <mxGeometry x="620" y="240" width="80" height="30" as="geometry" />
        </mxCell>
        <mxCell id="132BHVAMFDwWj38LlXiz-4" value="" style="shape=flexArrow;endArrow=classic;html=1;rounded=0;" edge="1" parent="1">
          <mxGeometry width="50" height="50" relative="1" as="geometry">
            <mxPoint x="20" y="360" as="sourcePoint" />
            <mxPoint x="620" y="360" as="targetPoint" />
          </mxGeometry>
        </mxCell>
        <mxCell id="132BHVAMFDwWj38LlXiz-5" value="AI生成小说" style="text;html=1;strokeColor=none;fillColor=none;align=center;verticalAlign=middle;whiteSpace=wrap;rounded=0;" vertex="1" parent="1">
          <mxGeometry x="620" y="340" width="80" height="30" as="geometry" />
        </mxCell>
      </root>
    </mxGraphModel>
  </diagram>
</mxfile>
